# AST/ASF file generated using VICON BodyLanguage
# -----------------------------------------------
:version 1.10
:name VICON
:units
  mass 1.0
  length 0.45
  angle deg
:documentation
   .ast/.asf automatically generated from VICON data using
   VICON BodyBuilder and BodyLanguage model FoxedUp or BRILLIANT.MOD
:root
   order TX TY TZ RX RY RZ
   axis XYZ
   position 0 0 0  
   orientation 0 0 0 
:bonedata
  begin
     id 1 
     name lhipjoint
     direction 0.588788 -0.725889 0.355548 
     length 2.37778 
     axis 0 0 0  XYZ
  end
  begin
     id 2 
     name lfemur
     direction 0.34202 -0.939693 0  
     length 6.86393  
     axis 0 0 20  XYZ
    dof rx ry rz
    limits (-160.0 20.0)
           (-70.0 70.0)
           (-60.0 70.0)
  end
  begin
     id 3 
     name ltibia
     direction 0.34202 -0.939693 0   
     length 7.32851   
     axis 0 0 20   XYZ
    dof rx
    limits (-10.0 170.0)
  end
  begin
     id 4 
     name lfoot
     direction 0.0626533 -0.172138 0.983078   
     length 1.98929   
     axis -90 7.62852e-016 20   XYZ
    dof rx rz
    limits (-45.0 90.0)
           (-70.0 20.0)
  end
  begin
     id 5 
     name ltoes
     direction 1.53647e-011 -4.21734e-011 1   
     length 1.00479   
     axis -90 7.62852e-016 20   XYZ
    dof rx
    limits (-90.0 20.0)
  end
  begin
     id 6 
     name rhipjoint
     direction -0.59141 -0.724168 0.354705   
     length 2.38343  
     axis 0 0 0  XYZ 
  end
  begin
     id 7 
     name rfemur
     direction -0.34202 -0.939693 0   
     length 6.95589   
     axis 0 0 -20   XYZ
    dof rx ry rz
    limits (-160.0 20.0)
           (-70.0 70.0)
           (-70.0 60.0)
  end
  begin
     id 8 
     name rtibia
     direction -0.34202 -0.939693 0   
     length 7.32327   
     axis 0 0 -20   XYZ
    dof rx
    limits (-10.0 170.0)
 end
 begin
     id 9 
     name rfoot
     direction -0.0660461 -0.18146 0.981178   
     length 1.85272  
     axis -90 -7.62852e-016 -20   XYZ
    dof rx rz
    limits (-45.0 90.0)
           (-20.0 70.0)
  end
  begin
     id 10 
     name rtoes
     direction -1.53586e-011 -4.21988e-011 1   
     length 0.93746   
     axis -90 -7.62852e-016 -20   XYZ
    dof rx
    limits (-90.0 20.0)
  end
  begin
     id 11 
     name lowerback
     direction -0.0107982 0.991059 0.13299   
     length 1.98691   
     axis 0 0 0   XYZ
    dof rx ry rz
    limits (-20.0 45.0)
           (-30.0 30.0)
           (-30.0 30.0)
  end
  begin
     id 12 
     name upperback
     direction 0.0076296 0.999916 0.0104576   
     length 1.99501   
     axis 0 0 0   XYZ
    dof rx ry rz
    limits (-20.0 45.0)
           (-30.0 30.0)
           (-30.0 30.0)
  end
  begin
     id 13 
     name thorax
     direction 0.01176 0.998615 -0.0512909   
     length 2.03144   
     axis 0 0 0   XYZ
    dof rx ry rz
    limits (-20.0 45.0)
           (-30.0 30.0)
           (-30.0 30.0)
  end
  begin
     id 14 
     name lowerneck
     direction -0.0171909 0.999644 0.0204011   
     length 1.71818   
     axis 0 0 0   XYZ
    dof rx ry rz
    limits (-20.0 45.0)
           (-30.0 30.0)
           (-30.0 30.0)
  end
  begin
     id 15 
     name upperneck
     direction 0.0250902 0.997482 -0.0663316   
     length 1.66199   
     axis 0 0 0   XYZ
    dof rx ry rz
    limits (-20.0 45.0)
           (-30.0 30.0)
           (-30.0 30.0)
  end
  begin
     id 16
     name head
     direction 0.00881535 0.99956 -0.0283365  
     length 1.81545  
     axis 0 0 0   XYZ
    dof rx ry rz
    limits (-20.0 45.0)
           (-30.0 30.0)
           (-30.0 30.0)
  end
  begin
     id 17 
     name lclavicle
     direction 0.840411 0.486876 -0.238035  
     length 3.30409  
     axis 0 0 0   XYZ
    dof ry rz
    limits (-20.0 10.0)
           (0.0 20.0)
  end
  begin
     id 18 
     name lhumerus
     direction 1 -4.48977e-011 -5.16239e-027   
     length 4.62672   
     axis 180 -30 -90   XYZ
    dof rx ry rz
    limits (-60.0 90.0)
           (-90.0 90.0)
           (-90.0 90.0)
  end
  begin
     id 19
     name lradius
     direction 1 -4.48977e-011 -8.71171e-027   
     length 3.11018   
     axis 180 -30 -90   XYZ
    dof rx
    limits (-10.0 170.0)
  end
  begin
     id 20
     name lwrist
     direction 1 -4.48912e-011 -1.03764e-026   
     length 1.55509   
     axis 9.09556e-015 90 90   XYZ
    dof ry
    limits (-180.0 0.0)
 end
  begin
     id 21 
     name lhand
     direction 1 -4.49072e-011 -2.07528e-026   
     length 0.743834   
     axis 1.3242e-014 90 90   XYZ
    dof rx rz
    limits (-90.0 90.0)
           (-45.0 45.0)
  end
  begin
     id 22 
     name lfingers
     direction 1 -4.48909e-011 -4.15056e-026   
     length 0.599698   
     axis 2.64841e-014 90 90   XYZ
    dof rx
    limits (0.0 90.0)
  end
  begin
     id 23
     name lthumb
     direction 0.707107 -6.35013e-011 0.707107   
     length 0.86105   
     axis -90 45 2.85299e-015   XYZ
    dof rx rz
    limits (-45.0 45.0)
           (-45.0 45.0)
  end
  begin
     id 24 
     name rclavicle
     direction -0.835208 0.500237 -0.228452   
     length 3.2716  
     axis 0 0 0   XYZ 
    dof ry rz
    limits (-10.0 20.0)
           (-20.0 0.0)
  end
  begin
     id 25 
     name rhumerus
     direction -1 -4.48978e-011 -5.1953e-028  
     length 4.55919   
     axis 180 30 90   XYZ
    dof rx ry rz
    limits (-90.0 60.0)
           (-90.0 90.0)
           (-90.0 90.0)
  end
  begin
     id 26 
     name rradius
     direction -1 -4.48961e-011 -5.99546e-027   
     length 3.22748   
     axis 180 30 90   XYZ
    dof rx
    limits (-10.0 170.0)
  end
  begin
     id 27 
     name rwrist
     direction -1 -4.48986e-011 -1.03764e-026   
     length 1.61374   
     axis 9.09556e-015 -90 -90   XYZ
    dof ry
    limits (-180.0 0.0)
  end
  begin
     id 28
     name rhand
     direction -1 -4.4899e-011 -2.07528e-026   
     length 0.700882   
     axis 1.3242e-014 -90 -90   XYZ
    dof rx rz
    limits (-90.0 90.0)
           (-45.0 45.0)
  end
  begin
     id 29
     name rfingers
     direction -1 -4.48991e-011 -4.15056e-026   
     length 0.565069   
     axis 2.64841e-014 -90 -90   XYZ
    dof rx
    limits (0.0 90.0)
  end
  begin
     id 30
     name rthumb
     direction -0.707107 -6.34804e-011 0.707107   
     length 0.811329   
     axis -90 -45 -2.85299e-015   XYZ
    dof rx rz
    limits (-45.0 45.0)
           (-45.0 45.0)
  end
:hierarchy
  begin
    root lhipjoint rhipjoint lowerback
    lhipjoint lfemur
    lfemur ltibia
    ltibia lfoot
    lfoot ltoes
    rhipjoint rfemur
    rfemur rtibia
    rtibia rfoot
    rfoot rtoes
    lowerback upperback
    upperback thorax
    thorax lowerneck lclavicle rclavicle
    lowerneck upperneck
    upperneck head
    lclavicle lhumerus
    lhumerus lradius
    lradius lwrist
    lwrist lhand lthumb
    lhand lfingers
    rclavicle rhumerus
    rhumerus rradius
    rradius rwrist
    rwrist rhand rthumb
    rhand rfingers
  end

#!OML:ASF F:\VICON\USERDATA\INSTALL\SteveWalk\SteveWalk.ASF
:FULLY-SPECIFIED
:DEGREES
190
root 1.25375 16.3605 -3.63239 16.4077 1.82937 2.41486
lowerback -13.8217 -2.30108 -5.41377
upperback -4.85755 -2.33199 0.2708
thorax 2.83395 -1.13368 2.96129
lowerneck -4.84184 -0.359245 -0.0793193
upperneck 13.1276 -0.696326 1.64266
head 4.73628 -0.249737 0.481131
rclavicle 2.36499e-014 -5.96354e-016
rhumerus -72.8419 -39.3794 -30.9915
rradius 11.1094
rwrist 44.6701
rhand -14.2114 -35.8799
rfingers 7.12502
rthumb 11.9253 -65.5202
lclavicle 2.36499e-014 -5.96354e-016
lhumerus -19.661 -9.05991 84.3853
lradius 39.5509
lwrist 3.84759
lhand -23.6726 -17.3954
lfingers 7.12502
lthumb 2.7935 12.5661
rfemur -49.3763 -6.47772 23.3386
rtibia 38.1964
rfoot -12.4031 -4.04239
rtoes -17.6551
lfemur -16.4465 5.49112 -25.3663
ltibia 29.1152
lfoot -25.6639 -7.05056
ltoes -7.28407
191
root 1.25166 16.3409 -3.4111 16.2581 2.03601 2.51572
lowerback -13.767 -2.33046 -5.45401
upperback -4.76536 -2.36385 0.214491
thorax 2.90365 -1.15295 2.9193
lowerneck -4.85676 -0.415426 -0.0311712
upperneck 13.1724 -0.78625 1.70732
head 4.75353 -0.287316 0.488202
rclavicle 2.06156e-014 1.59525e-014
rhumerus -73.4748 -38.8176 -30.728
rradius 11.3186
rwrist 43.5974
rhand -14.0134 -36.7959
rfingers 7.12502
rthumb 12.1161 -66.4251
lclavicle 2.06156e-014 1.59525e-014
lhumerus -18.575 -10.2669 84.0727
lradius 40.8104
lwrist 4.54446
lhand -23.7359 -17.201
lfingers 7.12502
lthumb 2.7324 12.7613
rfemur -49.1943 -6.27921 23.2216
rtibia 34.9403
rfoot -12.102 -3.75067
rtoes -17.6658
lfemur -14.8013 6.03102 -25.2934
ltibia 27.9631
lfoot -25.9507 -7.3451
ltoes -8.84506
192
root 1.24837 16.3232 -3.18894 16.0638 2.33242 2.80548
lowerback -13.6213 -2.42804 -5.65707
upperback -4.66508 -2.46798 0.106267
thorax 2.94275 -1.20726 2.90491
lowerneck -4.8335 -0.484967 0.109862
upperneck 13.1118 -0.89332 1.70972
head 4.73154 -0.333444 0.459872
rclavicle -2.03374e-014 -5.96354e-016
rhumerus -73.8742 -38.1222 -30.8666
rradius 11.523
rwrist 42.3528
rhand -14.1191 -36.7204
rfingers 7.12502
rthumb 12.0143 -66.3556
lclavicle -2.03374e-014 -5.96354e-016
lhumerus -17.4881 -11.4685 83.7029
lradius 41.8593
lwrist 5.78018
lhand -23.5625 -17.888
lfingers 7.12502
lthumb 2.8999 12.072
rfemur -48.8694 -6.14329 22.8545
rtibia 31.7658
rfoot -11.7213 -3.62687
rtoes -19.2915
lfemur -13.0409 6.63606 -25.3689
ltibia 26.7659
lfoot -26.2633 -7.46974
ltoes -11.9199
193
root 1.24717 16.2973 -2.9671 15.9337 2.70093 3.02672
lowerback -13.5369 -2.56683 -5.79307
upperback -4.61355 -2.63459 0.0403428
thorax 2.96904 -1.29134 2.88584
lowerneck -4.69617 -0.613981 0.25018
upperneck 13.0931 -1.06463 1.58851
head 4.70283 -0.418881 0.390452
rclavicle 3.91202e-015 -2.08724e-015
rhumerus -74.8294 -37.6778 -30.0426
rradius 11.5465
rwrist 42.2494
rhand -14.798 -35.9257
rfingers 7.12502
rthumb 11.3596 -65.598
lclavicle 3.91202e-015 -2.08724e-015
lhumerus -16.5731 -12.3243 83.2779
lradius 43.0334
lwrist 6.51549
lhand -23.4387 -18.6752
lfingers 7.12502
lthumb 3.0194 11.2832
rfemur -48.6936 -6.208 22.7068
rtibia 28.7861
rfoot -11.289 -3.80559
rtoes -23.5149
lfemur -11.3439 7.32834 -25.334
ltibia 25.5081
lfoot -26.4563 -7.71237
ltoes -15.4943
194
root 1.24617 16.2756 -2.74726 16.0369 3.17806 3.32734
lowerback -13.6374 -2.75155 -5.97921
upperback -4.6373 -2.84372 -0.0378374
thorax 3.02146 -1.39525 2.86987
lowerneck -4.6151 -0.760077 0.209029
upperneck 13.14 -1.2716 1.68722
head 4.70592 -0.51679 0.41666
rclavicle 1.50529e-014 4.12478e-015
rhumerus -75.7714 -37.254 -29.1531
rradius 11.5375
rwrist 42.382
rhand -15.1047 -34.9129
rfingers 7.12502
rthumb 11.0638 -64.6013
lclavicle 1.50529e-014 4.12478e-015
lhumerus -15.6474 -12.8382 82.9129
lradius 43.9217
lwrist 6.75864
lhand -23.4671 -19.5236
lfingers 7.12502
lthumb 2.99203 10.4352
rfemur -48.9116 -6.61351 22.6598
rtibia 26.1109
rfoot -11.0483 -3.5741
rtoes -25.1843
lfemur -9.9236 7.78388 -25.3423
ltibia 24.1875
lfoot -26.4452 -8.83372
ltoes -15.6427
195
root 1.24316 16.28 -2.53255 16.2774 3.90416 3.52596
lowerback -13.793 -3.00063 -6.04867
upperback -4.6908 -3.15175 -0.0572662
thorax 3.08008 -1.54765 2.8306
lowerneck -4.56283 -0.834584 0.206907
upperneck 13.1232 -1.38813 1.81525
head 4.69381 -0.567009 0.450389
rclavicle -1.84054e-014 -1.14798e-014
rhumerus -76.3652 -36.7827 -28.722
rradius 11.5546
rwrist 42.0198
rhand -15.0076 -34.4008
rfingers 7.12502
rthumb 11.1574 -64.0842
lclavicle -1.84054e-014 -1.14798e-014
lhumerus -14.6973 -13.39 82.5243
lradius 44.7807
lwrist 7.0013
lhand -23.3657 -19.9084
lfingers 7.12502
lthumb 3.08997 10.0489
rfemur -49.1959 -7.24392 22.7829
rtibia 23.6825
rfoot -11.7042 -2.07365
rtoes -19.6074
lfemur -8.75001 7.68748 -25.1672
ltibia 22.8839
lfoot -26.0825 -10.4843
ltoes -12.5671
196
root 1.23851 16.2793 -2.31569 16.5546 4.58065 3.73235
lowerback -14.0104 -3.22969 -6.13337
upperback -4.73728 -3.42619 -0.0699351
thorax 3.17752 -1.68427 2.80831
lowerneck -4.37124 -0.870917 0.249194
upperneck 12.5192 -1.42951 1.81482
head 4.97808 -0.595518 0.495779
rclavicle 1.18805e-016 1.11319e-014
rhumerus -76.7654 -36.2831 -28.5513
rradius 11.5937
rwrist 41.2947
rhand -14.2552 -34.3628
rfingers 7.12502
rthumb 11.883 -64.0056
lclavicle 1.18805e-016 1.11319e-014
lhumerus -13.8028 -14.0672 82.0977
lradius 45.7745
lwrist 7.46016
lhand -23.3282 -19.9058
lfingers 7.12502
lthumb 3.12615 10.051
rfemur -49.4881 -7.82192 22.876
rtibia 21.5658
rfoot -12.4115 -0.434525
rtoes -16.2721
lfemur -7.61477 7.22712 -25.0081
ltibia 21.5835
lfoot -25.4249 -11.4967
ltoes -10.2572
197
root 1.23378 16.2581 -2.09569 16.7443 5.13693 3.93108
lowerback -14.2198 -3.41495 -6.20014
upperback -4.69901 -3.64186 -0.103744
thorax 3.35257 -1.79556 2.76026
lowerneck -4.30221 -0.9268 0.261645
upperneck 12.2798 -1.50547 1.85492
head 4.87582 -0.632388 0.502641
rclavicle 1.1208e-014 -1.19271e-015
rhumerus -76.8693 -35.8434 -28.8422
rradius 11.6836
rwrist 40.253
rhand -12.9208 -34.9016
rfingers 7.12502
rthumb 13.1696 -64.4657
lclavicle 1.1208e-014 -1.19271e-015
lhumerus -12.768 -14.7349 81.6642
lradius 46.5368
lwrist 7.966
lhand -23.4635 -20.2672
lfingers 7.12502
lthumb 2.99551 9.69153
rfemur -49.8376 -8.40784 23.0622
rtibia 19.7842
rfoot -12.7243 0.973985
rtoes -17.539
lfemur -6.34854 6.94737 -24.8532
ltibia 20.3656
lfoot -24.9666 -11.7857
ltoes -11.2418
198
root 1.22978 16.2322 -1.87954 17.1141 5.68547 4.14769
lowerback -14.5235 -3.61393 -6.25767
upperback -4.73787 -3.87282 -0.107927
thorax 3.49959 -1.91176 2.7313
lowerneck -4.37089 -1.0215 0.10889
upperneck 12.2306 -1.63438 1.97904
head 4.87638 -0.696319 0.564853
rclavicle 4.81137e-014 9.83984e-015
rhumerus -76.8363 -35.394 -29.3238
rradius 11.8466
rwrist 39.0076
rhand -12.0077 -35.3889
rfingers 7.12502
rthumb 14.0495 -64.894
lclavicle 4.81137e-014 9.83984e-015
lhumerus -11.8003 -15.1625 81.2984
lradius 47.1957
lwrist 8.37708
lhand -23.6866 -20.4433
lfingers 7.12502
lthumb 2.78002 9.51838
rfemur -50.3955 -9.08056 23.3891
rtibia 18.0599
rfoot -12.7531 2.3698
rtoes -18.1363
lfemur -5.42428 6.54974 -24.7609
ltibia 19.5502
lfoot -24.9669 -11.2955
ltoes -14.9684
199
root 1.22428 16.2011 -1.66564 17.54 6.28144 4.15502
lowerback -14.7902 -3.78303 -6.08179
upperback -4.84288 -4.10589 -0.0414102
thorax 3.54748 -2.02529 2.64824
lowerneck -4.55222 -1.11597 0.12412
upperneck 12.314 -1.75224 1.86075
head 4.94429 -0.757999 0.51441
rclavicle 6.20969e-015 9.83984e-015
rhumerus -77.0872 -35.0848 -29.16
rradius 11.8529
rwrist 38.432
rhand -11.6138 -35.5246
rfingers 7.12502
rthumb 14.4292 -65.003
lclavicle 6.20969e-015 9.83984e-015
lhumerus -11.1404 -15.3249 81.0249
lradius 48.0898
lwrist 8.58311
lhand -23.8213 -20.3762
lfingers 7.12502
lthumb 2.64991 9.58706
rfemur -50.9403 -10.0341 24.3408
rtibia 16.2966
rfoot -12.9883 4.16031
rtoes -18.8496
lfemur -4.81548 6.03913 -24.4482
ltibia 19.1625
lfoot -25.1824 -10.3699
ltoes -19.9218
200
root 1.22179 16.1636 -1.44597 17.8477 6.76978 4.02515
lowerback -14.9627 -3.90566 -5.75763
upperback -4.98634 -4.31075 0.0771643
thorax 3.49464 -2.1223 2.54814
lowerneck -4.52786 -1.16877 0.0355679
upperneck 12.3798 -1.81116 1.81596
head 4.96489 -0.79313 0.51174
rclavicle 4.37231e-014 6.42323e-015
rhumerus -77.6353 -34.7668 -28.4643
rradius 11.8237
rwrist 38.451
rhand -11.7367 -35.1338
rfingers 7.12502
rthumb 14.3107 -64.6207
lclavicle 4.37231e-014 6.42323e-015
lhumerus -10.822 -15.1664 80.924
lradius 49.0626
lwrist 8.53349
lhand -23.7373 -20.1761
lfingers 7.12502
lthumb 2.73105 9.78618
rfemur -51.3791 -11.194 25.776
rtibia 14.8362
rfoot -13.3768 6.16961
rtoes -21.7177
lfemur -4.24452 5.59066 -23.9891
ltibia 18.9885
lfoot -24.9172 -10.7817
ltoes -19.4117
